# xmcd
# Track frame offsets:
# 150
# 22145
# 41917
# 60905
# 85117
# 107377
# 126305
# 152537
# 172605
#
# Disc length: 2578 seconds
# Revision: 0
# Processed by: cddbd v1.4PL0 Copyright (c) Steve Scherf et al.
# Submitted via: VisiTrax 2.9.5.181 - For more info visit www.synapsa.com
#
DISCID=620a1009
DTITLE=Mel Waiters - Material Things
DYEAR=1999
DGENRE=General Blues
TTITLE0=Swing Out Song
TTITLE1=If She Lets You Get It
TTITLE2=Hole In The Wall
TTITLE3=Material Things
TTITLE4=Running Stop Lights
TTITLE5=She Ain't Drunk
TTITLE6=Compromise
TTITLE7=I'm So Glad
TTITLE8=Triying To Walk Away
EXTD=Malaco Records, Jackson, MS\nWCD - 2825
EXTT0=
EXTT1=
EXTT2=
EXTT3=
EXTT4=
EXTT5=
EXTT6=
EXTT7=
EXTT8=
PLAYORDER=
